# xmcd
#
# Track frame offsets:
#	150
#	14172
#	32868
#	51732
#	68115
#	84958
#	99922
#	115048
#	132471
#	148938
#	166293
#	183275
#	201054
#	218210
#	236814
#	255207
#	273444
#	293459
#	311857
#	330991
#
# Disc length: 4653 seconds
#
# Revision: 0
# Processed by: cddbd v1.5.2PL0 Copyright (c) Steve Scherf et al.
# Submitted via: EasyCDDAExtractor 16.0.0.1
#
DISCID=27122b14
DTITLE=PMMP - Hitit
DYEAR=2013
DGENRE=
TTITLE0=Rusketusraidat
TTITLE1=Niina
TTITLE2=Joutsenet
TTITLE3=Kesä -95
TTITLE4=Päiväkoti
TTITLE5=Oo siellä jossain mun
TTITLE6=Pikkuveli
TTITLE7=Matkalaulu
TTITLE8=Kumivirsi
TTITLE9=Henkilökohtaisesti
TTITLE10=Tässä elämä on
TTITLE11=Joku raja
TTITLE12=Kesäkaverit
TTITLE13=Viimeinen valitusvirsi
TTITLE14=Lautturi
TTITLE15=Pariterapiaa
TTITLE16=Heliumpallo
TTITLE17=Rakkaalleni
TTITLE18=Tytöt
TTITLE19=Valloittamaton
EXTD=
EXTT0=
EXTT1=
EXTT2=
EXTT3=
EXTT4=
EXTT5=
EXTT6=
EXTT7=
EXTT8=
EXTT9=
EXTT10=
EXTT11=
EXTT12=
EXTT13=
EXTT14=
EXTT15=
EXTT16=
EXTT17=
EXTT18=
EXTT19=
PLAYORDER=
